<mxfile host="app.diagrams.net" agent="Mozilla/5.0 (Windows NT 10.0; Win64; x64) AppleWebKit/537.36 (KHTML, like Gecko) Chrome/132.0.0.0 Safari/537.36" version="26.0.14">
  <diagram name="Page-1" id="SFHKm_8mK-iO6o67rYiH">
    <mxGraphModel dx="1120" dy="426" grid="1" gridSize="10" guides="1" tooltips="1" connect="1" arrows="1" fold="1" page="1" pageScale="1" pageWidth="850" pageHeight="1100" math="0" shadow="0">
      <root>
        <mxCell id="0" />
        <mxCell id="1" parent="0" />
        <mxCell id="yTXTeP-I51eBirvfdGVT-83" style="edgeStyle=orthogonalEdgeStyle;rounded=0;orthogonalLoop=1;jettySize=auto;html=1;exitX=1;exitY=0.5;exitDx=0;exitDy=0;entryX=0;entryY=0.5;entryDx=0;entryDy=0;" parent="1" source="yTXTeP-I51eBirvfdGVT-35" target="yTXTeP-I51eBirvfdGVT-74" edge="1">
          <mxGeometry relative="1" as="geometry" />
        </mxCell>
        <mxCell id="yTXTeP-I51eBirvfdGVT-35" value="Admin" style="rounded=0;whiteSpace=wrap;html=1;" parent="1" vertex="1">
          <mxGeometry x="50" y="190" width="120" height="30" as="geometry" />
        </mxCell>
        <mxCell id="yTXTeP-I51eBirvfdGVT-129" style="edgeStyle=orthogonalEdgeStyle;rounded=0;orthogonalLoop=1;jettySize=auto;html=1;exitX=1;exitY=0.5;exitDx=0;exitDy=0;entryX=0;entryY=0.5;entryDx=0;entryDy=0;" parent="1" source="yTXTeP-I51eBirvfdGVT-37" target="yTXTeP-I51eBirvfdGVT-126" edge="1">
          <mxGeometry relative="1" as="geometry" />
        </mxCell>
        <mxCell id="yTXTeP-I51eBirvfdGVT-37" value="Owner" style="rounded=0;whiteSpace=wrap;html=1;" parent="1" vertex="1">
          <mxGeometry x="50" y="735" width="120" height="30" as="geometry" />
        </mxCell>
        <mxCell id="yTXTeP-I51eBirvfdGVT-80" style="edgeStyle=orthogonalEdgeStyle;rounded=0;orthogonalLoop=1;jettySize=auto;html=1;exitX=1;exitY=0.5;exitDx=0;exitDy=0;entryX=0;entryY=0.5;entryDx=0;entryDy=0;" parent="1" source="yTXTeP-I51eBirvfdGVT-39" target="yTXTeP-I51eBirvfdGVT-74" edge="1">
          <mxGeometry relative="1" as="geometry" />
        </mxCell>
        <mxCell id="yTXTeP-I51eBirvfdGVT-39" value="Kasir" style="rounded=0;whiteSpace=wrap;html=1;" parent="1" vertex="1">
          <mxGeometry x="50" y="125" width="120" height="30" as="geometry" />
        </mxCell>
        <mxCell id="yTXTeP-I51eBirvfdGVT-124" style="edgeStyle=orthogonalEdgeStyle;rounded=0;orthogonalLoop=1;jettySize=auto;html=1;exitX=0.25;exitY=1;exitDx=0;exitDy=0;entryX=1;entryY=1;entryDx=0;entryDy=0;" parent="1" source="yTXTeP-I51eBirvfdGVT-64" target="yTXTeP-I51eBirvfdGVT-109" edge="1">
          <mxGeometry relative="1" as="geometry" />
        </mxCell>
        <mxCell id="yTXTeP-I51eBirvfdGVT-133" style="edgeStyle=orthogonalEdgeStyle;rounded=0;orthogonalLoop=1;jettySize=auto;html=1;exitX=0.75;exitY=1;exitDx=0;exitDy=0;entryX=1;entryY=1;entryDx=0;entryDy=0;" parent="1" source="yTXTeP-I51eBirvfdGVT-64" target="yTXTeP-I51eBirvfdGVT-126" edge="1">
          <mxGeometry relative="1" as="geometry">
            <Array as="points">
              <mxPoint x="670" y="792" />
            </Array>
          </mxGeometry>
        </mxCell>
        <mxCell id="yTXTeP-I51eBirvfdGVT-64" value="Database Transaksi" style="shape=partialRectangle;whiteSpace=wrap;html=1;left=0;right=0;fillColor=none;" parent="1" vertex="1">
          <mxGeometry x="580" y="558" width="120" height="30" as="geometry" />
        </mxCell>
        <mxCell id="yTXTeP-I51eBirvfdGVT-102" style="edgeStyle=orthogonalEdgeStyle;rounded=0;orthogonalLoop=1;jettySize=auto;html=1;exitX=0.5;exitY=0;exitDx=0;exitDy=0;entryX=1;entryY=0;entryDx=0;entryDy=0;" parent="1" source="yTXTeP-I51eBirvfdGVT-65" target="yTXTeP-I51eBirvfdGVT-85" edge="1">
          <mxGeometry relative="1" as="geometry">
            <Array as="points">
              <mxPoint x="640" y="310" />
              <mxPoint x="447" y="310" />
            </Array>
          </mxGeometry>
        </mxCell>
        <mxCell id="yTXTeP-I51eBirvfdGVT-65" value="Database Produk" style="shape=partialRectangle;whiteSpace=wrap;html=1;left=0;right=0;fillColor=none;" parent="1" vertex="1">
          <mxGeometry x="580" y="330" width="120" height="30" as="geometry" />
        </mxCell>
        <mxCell id="yTXTeP-I51eBirvfdGVT-66" value="Database Outlet" style="shape=partialRectangle;whiteSpace=wrap;html=1;left=0;right=0;fillColor=none;" parent="1" vertex="1">
          <mxGeometry x="580" y="385" width="120" height="30" as="geometry" />
        </mxCell>
        <mxCell id="yTXTeP-I51eBirvfdGVT-103" style="edgeStyle=orthogonalEdgeStyle;rounded=0;orthogonalLoop=1;jettySize=auto;html=1;exitX=0.5;exitY=1;exitDx=0;exitDy=0;entryX=1;entryY=1;entryDx=0;entryDy=0;" parent="1" source="yTXTeP-I51eBirvfdGVT-67" target="yTXTeP-I51eBirvfdGVT-85" edge="1">
          <mxGeometry relative="1" as="geometry">
            <Array as="points">
              <mxPoint x="640" y="490" />
              <mxPoint x="447" y="490" />
            </Array>
          </mxGeometry>
        </mxCell>
        <mxCell id="yTXTeP-I51eBirvfdGVT-67" value="Database User" style="shape=partialRectangle;whiteSpace=wrap;html=1;left=0;right=0;fillColor=none;" parent="1" vertex="1">
          <mxGeometry x="580" y="440" width="120" height="30" as="geometry" />
        </mxCell>
        <mxCell id="yTXTeP-I51eBirvfdGVT-86" value="" style="edgeStyle=orthogonalEdgeStyle;rounded=0;orthogonalLoop=1;jettySize=auto;html=1;" parent="1" source="yTXTeP-I51eBirvfdGVT-74" target="yTXTeP-I51eBirvfdGVT-85" edge="1">
          <mxGeometry relative="1" as="geometry" />
        </mxCell>
        <mxCell id="yTXTeP-I51eBirvfdGVT-74" value="Verifikasi Pelanggan&lt;div&gt;1.1&lt;/div&gt;" style="ellipse;whiteSpace=wrap;html=1;aspect=fixed;" parent="1" vertex="1">
          <mxGeometry x="345" y="180" width="120" height="120" as="geometry" />
        </mxCell>
        <mxCell id="yTXTeP-I51eBirvfdGVT-96" style="edgeStyle=orthogonalEdgeStyle;rounded=0;orthogonalLoop=1;jettySize=auto;html=1;exitX=1;exitY=0.5;exitDx=0;exitDy=0;entryX=0;entryY=0.5;entryDx=0;entryDy=0;" parent="1" source="yTXTeP-I51eBirvfdGVT-85" target="yTXTeP-I51eBirvfdGVT-65" edge="1">
          <mxGeometry relative="1" as="geometry">
            <Array as="points">
              <mxPoint x="550" y="400" />
              <mxPoint x="550" y="345" />
            </Array>
          </mxGeometry>
        </mxCell>
        <mxCell id="yTXTeP-I51eBirvfdGVT-97" style="edgeStyle=orthogonalEdgeStyle;rounded=0;orthogonalLoop=1;jettySize=auto;html=1;exitX=1;exitY=0.5;exitDx=0;exitDy=0;" parent="1" source="yTXTeP-I51eBirvfdGVT-85" target="yTXTeP-I51eBirvfdGVT-66" edge="1">
          <mxGeometry relative="1" as="geometry" />
        </mxCell>
        <mxCell id="yTXTeP-I51eBirvfdGVT-98" style="edgeStyle=orthogonalEdgeStyle;rounded=0;orthogonalLoop=1;jettySize=auto;html=1;exitX=1;exitY=0.5;exitDx=0;exitDy=0;entryX=0;entryY=0.5;entryDx=0;entryDy=0;" parent="1" source="yTXTeP-I51eBirvfdGVT-85" target="yTXTeP-I51eBirvfdGVT-67" edge="1">
          <mxGeometry relative="1" as="geometry">
            <Array as="points">
              <mxPoint x="550" y="400" />
              <mxPoint x="550" y="455" />
            </Array>
          </mxGeometry>
        </mxCell>
        <mxCell id="yTXTeP-I51eBirvfdGVT-110" value="" style="edgeStyle=orthogonalEdgeStyle;rounded=0;orthogonalLoop=1;jettySize=auto;html=1;" parent="1" source="yTXTeP-I51eBirvfdGVT-85" target="yTXTeP-I51eBirvfdGVT-109" edge="1">
          <mxGeometry relative="1" as="geometry" />
        </mxCell>
        <mxCell id="yTXTeP-I51eBirvfdGVT-85" value="Entri Transaksi&lt;div&gt;1.2&lt;/div&gt;" style="ellipse;whiteSpace=wrap;html=1;aspect=fixed;" parent="1" vertex="1">
          <mxGeometry x="345" y="340" width="120" height="120" as="geometry" />
        </mxCell>
        <mxCell id="yTXTeP-I51eBirvfdGVT-87" value="Verifikasi Data" style="text;html=1;align=center;verticalAlign=middle;resizable=0;points=[];autosize=1;strokeColor=none;fillColor=none;fontSize=11;" parent="1" vertex="1">
          <mxGeometry x="255" y="210" width="90" height="30" as="geometry" />
        </mxCell>
        <mxCell id="yTXTeP-I51eBirvfdGVT-91" value="Konfirmasi Transaksi" style="text;html=1;align=center;verticalAlign=middle;resizable=0;points=[];autosize=1;strokeColor=none;fillColor=none;fontSize=11;" parent="1" vertex="1">
          <mxGeometry x="226" y="400" width="130" height="30" as="geometry" />
        </mxCell>
        <mxCell id="yTXTeP-I51eBirvfdGVT-93" style="edgeStyle=orthogonalEdgeStyle;rounded=0;orthogonalLoop=1;jettySize=auto;html=1;exitX=1;exitY=0.5;exitDx=0;exitDy=0;entryX=0.031;entryY=0.43;entryDx=0;entryDy=0;entryPerimeter=0;" parent="1" source="yTXTeP-I51eBirvfdGVT-39" target="yTXTeP-I51eBirvfdGVT-85" edge="1">
          <mxGeometry relative="1" as="geometry">
            <Array as="points">
              <mxPoint x="200" y="140" />
              <mxPoint x="200" y="392" />
              <mxPoint x="320" y="392" />
            </Array>
          </mxGeometry>
        </mxCell>
        <mxCell id="yTXTeP-I51eBirvfdGVT-94" style="edgeStyle=orthogonalEdgeStyle;rounded=0;orthogonalLoop=1;jettySize=auto;html=1;exitX=1;exitY=0.5;exitDx=0;exitDy=0;entryX=0.003;entryY=0.439;entryDx=0;entryDy=0;entryPerimeter=0;" parent="1" source="yTXTeP-I51eBirvfdGVT-35" target="yTXTeP-I51eBirvfdGVT-85" edge="1">
          <mxGeometry relative="1" as="geometry">
            <Array as="points">
              <mxPoint x="200" y="205" />
              <mxPoint x="200" y="393" />
            </Array>
          </mxGeometry>
        </mxCell>
        <mxCell id="yTXTeP-I51eBirvfdGVT-95" value="Pilih Outlet, Pelanggan, Produk" style="text;html=1;align=center;verticalAlign=middle;resizable=0;points=[];autosize=1;strokeColor=none;fillColor=none;fontSize=11;rotation=90;" parent="1" vertex="1">
          <mxGeometry x="120" y="280" width="180" height="30" as="geometry" />
        </mxCell>
        <mxCell id="yTXTeP-I51eBirvfdGVT-99" value="Request Data" style="text;html=1;align=center;verticalAlign=middle;resizable=0;points=[];autosize=1;strokeColor=none;fillColor=none;fontSize=11;" parent="1" vertex="1">
          <mxGeometry x="465" y="370" width="90" height="30" as="geometry" />
        </mxCell>
        <mxCell id="yTXTeP-I51eBirvfdGVT-101" value="Data Transaksi" style="text;html=1;align=center;verticalAlign=middle;resizable=0;points=[];autosize=1;strokeColor=none;fillColor=none;fontSize=11;" parent="1" vertex="1">
          <mxGeometry x="310" y="300" width="100" height="30" as="geometry" />
        </mxCell>
        <mxCell id="yTXTeP-I51eBirvfdGVT-105" value="Memberikan Data" style="text;html=1;align=center;verticalAlign=middle;resizable=0;points=[];autosize=1;strokeColor=none;fillColor=none;fontSize=11;" parent="1" vertex="1">
          <mxGeometry x="457" y="284" width="110" height="30" as="geometry" />
        </mxCell>
        <mxCell id="yTXTeP-I51eBirvfdGVT-106" value="Memberikan Data" style="text;html=1;align=center;verticalAlign=middle;resizable=0;points=[];autosize=1;strokeColor=none;fillColor=none;fontSize=11;" parent="1" vertex="1">
          <mxGeometry x="449" y="466" width="110" height="30" as="geometry" />
        </mxCell>
        <mxCell id="yTXTeP-I51eBirvfdGVT-122" style="edgeStyle=orthogonalEdgeStyle;rounded=0;orthogonalLoop=1;jettySize=auto;html=1;exitX=1;exitY=0.5;exitDx=0;exitDy=0;entryX=0;entryY=0.75;entryDx=0;entryDy=0;" parent="1" source="yTXTeP-I51eBirvfdGVT-109" target="yTXTeP-I51eBirvfdGVT-64" edge="1">
          <mxGeometry relative="1" as="geometry" />
        </mxCell>
        <mxCell id="yTXTeP-I51eBirvfdGVT-127" value="" style="edgeStyle=orthogonalEdgeStyle;rounded=0;orthogonalLoop=1;jettySize=auto;html=1;" parent="1" source="yTXTeP-I51eBirvfdGVT-109" target="yTXTeP-I51eBirvfdGVT-126" edge="1">
          <mxGeometry relative="1" as="geometry" />
        </mxCell>
        <mxCell id="yTXTeP-I51eBirvfdGVT-109" value="Konfirmasi Transaksi&lt;div&gt;1.3&lt;/div&gt;" style="ellipse;whiteSpace=wrap;html=1;aspect=fixed;" parent="1" vertex="1">
          <mxGeometry x="345" y="520" width="120" height="120" as="geometry" />
        </mxCell>
        <mxCell id="yTXTeP-I51eBirvfdGVT-111" value="Data Transaksi" style="text;html=1;align=center;verticalAlign=middle;resizable=0;points=[];autosize=1;strokeColor=none;fillColor=none;fontSize=11;" parent="1" vertex="1">
          <mxGeometry x="310" y="470" width="100" height="30" as="geometry" />
        </mxCell>
        <mxCell id="yTXTeP-I51eBirvfdGVT-114" value="Konfirmasi Pesanan" style="text;html=1;align=center;verticalAlign=middle;resizable=0;points=[];autosize=1;strokeColor=none;fillColor=none;fontSize=11;" parent="1" vertex="1">
          <mxGeometry x="225" y="580" width="120" height="30" as="geometry" />
        </mxCell>
        <mxCell id="yTXTeP-I51eBirvfdGVT-116" style="edgeStyle=orthogonalEdgeStyle;rounded=0;orthogonalLoop=1;jettySize=auto;html=1;exitX=0;exitY=0.5;exitDx=0;exitDy=0;entryX=0.008;entryY=0.383;entryDx=0;entryDy=0;entryPerimeter=0;" parent="1" source="yTXTeP-I51eBirvfdGVT-39" target="yTXTeP-I51eBirvfdGVT-109" edge="1">
          <mxGeometry relative="1" as="geometry" />
        </mxCell>
        <mxCell id="yTXTeP-I51eBirvfdGVT-118" style="edgeStyle=orthogonalEdgeStyle;rounded=0;orthogonalLoop=1;jettySize=auto;html=1;exitX=0;exitY=0.5;exitDx=0;exitDy=0;entryX=0.008;entryY=0.408;entryDx=0;entryDy=0;entryPerimeter=0;" parent="1" source="yTXTeP-I51eBirvfdGVT-35" target="yTXTeP-I51eBirvfdGVT-109" edge="1">
          <mxGeometry relative="1" as="geometry" />
        </mxCell>
        <mxCell id="yTXTeP-I51eBirvfdGVT-119" value="Simpan Dan Eksekusi Pesanan" style="text;html=1;align=center;verticalAlign=middle;resizable=0;points=[];autosize=1;strokeColor=none;fillColor=none;fontSize=11;" parent="1" vertex="1">
          <mxGeometry x="157.5" y="535" width="180" height="30" as="geometry" />
        </mxCell>
        <mxCell id="yTXTeP-I51eBirvfdGVT-121" value="Pesanan Sesuai" style="text;html=1;align=center;verticalAlign=middle;resizable=0;points=[];autosize=1;strokeColor=none;fillColor=none;fontSize=11;" parent="1" vertex="1">
          <mxGeometry x="236" y="620" width="100" height="30" as="geometry" />
        </mxCell>
        <mxCell id="yTXTeP-I51eBirvfdGVT-123" value="Memberikan Data" style="text;html=1;align=center;verticalAlign=middle;resizable=0;points=[];autosize=1;strokeColor=none;fillColor=none;fontSize=11;" parent="1" vertex="1">
          <mxGeometry x="462" y="550" width="110" height="30" as="geometry" />
        </mxCell>
        <mxCell id="yTXTeP-I51eBirvfdGVT-125" value="Memberikan Data" style="text;html=1;align=center;verticalAlign=middle;resizable=0;points=[];autosize=1;strokeColor=none;fillColor=none;fontSize=11;" parent="1" vertex="1">
          <mxGeometry x="465" y="600" width="110" height="30" as="geometry" />
        </mxCell>
        <mxCell id="yTXTeP-I51eBirvfdGVT-131" style="edgeStyle=orthogonalEdgeStyle;rounded=0;orthogonalLoop=1;jettySize=auto;html=1;exitX=1;exitY=0.5;exitDx=0;exitDy=0;entryX=0.5;entryY=1;entryDx=0;entryDy=0;" parent="1" source="yTXTeP-I51eBirvfdGVT-126" target="yTXTeP-I51eBirvfdGVT-64" edge="1">
          <mxGeometry relative="1" as="geometry" />
        </mxCell>
        <mxCell id="yTXTeP-I51eBirvfdGVT-135" style="edgeStyle=orthogonalEdgeStyle;rounded=0;orthogonalLoop=1;jettySize=auto;html=1;exitX=0;exitY=0;exitDx=0;exitDy=0;entryX=0.5;entryY=0;entryDx=0;entryDy=0;" parent="1" source="yTXTeP-I51eBirvfdGVT-126" target="yTXTeP-I51eBirvfdGVT-37" edge="1">
          <mxGeometry relative="1" as="geometry" />
        </mxCell>
        <mxCell id="yTXTeP-I51eBirvfdGVT-138" style="edgeStyle=orthogonalEdgeStyle;rounded=0;orthogonalLoop=1;jettySize=auto;html=1;exitX=0;exitY=0;exitDx=0;exitDy=0;" parent="1" source="yTXTeP-I51eBirvfdGVT-126" target="yTXTeP-I51eBirvfdGVT-35" edge="1">
          <mxGeometry relative="1" as="geometry" />
        </mxCell>
        <mxCell id="yTXTeP-I51eBirvfdGVT-139" style="edgeStyle=orthogonalEdgeStyle;rounded=0;orthogonalLoop=1;jettySize=auto;html=1;exitX=0;exitY=0;exitDx=0;exitDy=0;" parent="1" source="yTXTeP-I51eBirvfdGVT-126" target="yTXTeP-I51eBirvfdGVT-39" edge="1">
          <mxGeometry relative="1" as="geometry">
            <Array as="points">
              <mxPoint x="30" y="708" />
              <mxPoint x="30" y="170" />
              <mxPoint x="110" y="170" />
            </Array>
          </mxGeometry>
        </mxCell>
        <mxCell id="yTXTeP-I51eBirvfdGVT-126" value="Laporan Transaksi&lt;div&gt;1.4&lt;/div&gt;" style="ellipse;whiteSpace=wrap;html=1;aspect=fixed;" parent="1" vertex="1">
          <mxGeometry x="345" y="690" width="120" height="120" as="geometry" />
        </mxCell>
        <mxCell id="yTXTeP-I51eBirvfdGVT-128" value="Data Transaksi" style="text;html=1;align=center;verticalAlign=middle;resizable=0;points=[];autosize=1;strokeColor=none;fillColor=none;fontSize=11;" parent="1" vertex="1">
          <mxGeometry x="400" y="650" width="100" height="30" as="geometry" />
        </mxCell>
        <mxCell id="yTXTeP-I51eBirvfdGVT-130" value="Request Laporan" style="text;html=1;align=center;verticalAlign=middle;resizable=0;points=[];autosize=1;strokeColor=none;fillColor=none;fontSize=11;" parent="1" vertex="1">
          <mxGeometry x="200" y="720" width="110" height="30" as="geometry" />
        </mxCell>
        <mxCell id="yTXTeP-I51eBirvfdGVT-132" value="Meminta Data Laporan" style="text;html=1;align=center;verticalAlign=middle;resizable=0;points=[];autosize=1;strokeColor=none;fillColor=none;fontSize=11;" parent="1" vertex="1">
          <mxGeometry x="475" y="720" width="140" height="30" as="geometry" />
        </mxCell>
        <mxCell id="yTXTeP-I51eBirvfdGVT-134" value="Memberikan Data Laporan" style="text;html=1;align=center;verticalAlign=middle;resizable=0;points=[];autosize=1;strokeColor=none;fillColor=none;fontSize=11;" parent="1" vertex="1">
          <mxGeometry x="470" y="765" width="150" height="30" as="geometry" />
        </mxCell>
        <mxCell id="yTXTeP-I51eBirvfdGVT-136" value="Laporan Transaksi" style="text;html=1;align=center;verticalAlign=middle;resizable=0;points=[];autosize=1;strokeColor=none;fillColor=none;fontSize=11;" parent="1" vertex="1">
          <mxGeometry x="200" y="680" width="110" height="30" as="geometry" />
        </mxCell>
      </root>
    </mxGraphModel>
  </diagram>
</mxfile>
